# xmcd
#
# Track frame offsets: 
#        150
#        24966
#        49191
#        67744
#        89606
#        115374
#        128149
#        159605
#        186819
#        202468
#        219454
#
# Disc length: 3139 seconds
#
# Revision: 0
# Processed by: cddbd v1.5.2PL0 Copyright (c) Steve Scherf et al.
# Submitted via: ExactAudioCopyFreeDBPlugin 1.0
#
DISCID=9f0c410b
DTITLE=Leon Haywood - Naturally
DYEAR=1980
DGENRE=Soul
TTITLE0=Don't Push It Don't Force It
TTITLE1=Daydream
TTITLE2=That's What Time It Is
TTITLE3=Love Is What We Came Here For
TTITLE4=If You're Lookin' For A Night Of Fun (Look Past Me, I'm Not Th
TTITLE4=e One)
TTITLE5=Who You Been Giving It Up To
TTITLE6=Lover's Rap
TTITLE7=Daydream (12" Promo Version)
TTITLE8=Don't Push It Don't Force It (Single Version)
TTITLE9=If You're Lookin' For A Night Of Fun (Look Past Me, I'm Not Th
TTITLE9=e One) (7" Edit)
TTITLE10=Daydream (7" Edit)
EXTD=
EXTT0=
EXTT1=
EXTT2=
EXTT3=
EXTT4=
EXTT5=
EXTT6=
EXTT7=
EXTT8=
EXTT9=
EXTT10=
PLAYORDER=
